<?xml version="1.0" encoding="UTF-8"?>
<!DOCTYPE svg PUBLIC "-//W3C//DTD SVG 20010904//EN" "http://www.w3.org/TR/2001/REC-SVG-20010904/DTD/svg10.dtd">
<svg xmlns="http://www.w3.org/2000/svg"
     version="1.1"
     width="163.2mm"
     height="181.9mm"
     viewBox="0mm 0mm 163.2 181.9">
   <line x1="8mm"
         y1="5mm"
         x2="163.2mm"
         y2="5mm"
         style="stroke: black ; stroke-width:2px;"/>
   <line x1="8mm"
         y1="5mm"
         x2="8mm"
         y2="181.9mm"
         style="stroke: black ; stroke-width:2px;"/>
   <line x1="8mm"
         y1="5mm"
         x2="8mm"
         y2="6mm"
         style="stroke: red ; stroke-width:1pt"/>
   <line x1="10mm"
         y1="5mm"
         x2="10mm"
         y2="8mm"
         style="stroke: blue ; stroke-width:1pt"/>
   <text x="8.299999999999999mm"
         y="3.7mm"
         font-family="Arial"
         font-size="12"
         fill="red">10</text>
   <line x1="12mm"
         y1="5mm"
         x2="12mm"
         y2="6mm"
         style="stroke: red ; stroke-width:1pt"/>
   <line x1="14mm"
         y1="5mm"
         x2="14mm"
         y2="6mm"
         style="stroke: red ; stroke-width:1pt"/>
   <line x1="16mm"
         y1="5mm"
         x2="16mm"
         y2="6mm"
         style="stroke: red ; stroke-width:1pt"/>
   <line x1="18mm"
         y1="5mm"
         x2="18mm"
         y2="6mm"
         style="stroke: red ; stroke-width:1pt"/>
   <line x1="20mm"
         y1="5mm"
         x2="20mm"
         y2="8mm"
         style="stroke: blue ; stroke-width:1pt"/>
   <text x="18.3mm"
         y="3.7mm"
         font-family="Arial"
         font-size="12"
         fill="red">20</text>
   <line x1="22mm"
         y1="5mm"
         x2="22mm"
         y2="6mm"
         style="stroke: red ; stroke-width:1pt"/>
   <line x1="24mm"
         y1="5mm"
         x2="24mm"
         y2="6mm"
         style="stroke: red ; stroke-width:1pt"/>
   <line x1="26mm"
         y1="5mm"
         x2="26mm"
         y2="6mm"
         style="stroke: red ; stroke-width:1pt"/>
   <line x1="28mm"
         y1="5mm"
         x2="28mm"
         y2="6mm"
         style="stroke: red ; stroke-width:1pt"/>
   <line x1="30mm"
         y1="5mm"
         x2="30mm"
         y2="8mm"
         style="stroke: blue ; stroke-width:1pt"/>
   <text x="28.3mm"
         y="3.7mm"
         font-family="Arial"
         font-size="12"
         fill="red">30</text>
   <line x1="32mm"
         y1="5mm"
         x2="32mm"
         y2="6mm"
         style="stroke: red ; stroke-width:1pt"/>
   <line x1="34mm"
         y1="5mm"
         x2="34mm"
         y2="6mm"
         style="stroke: red ; stroke-width:1pt"/>
   <line x1="36mm"
         y1="5mm"
         x2="36mm"
         y2="6mm"
         style="stroke: red ; stroke-width:1pt"/>
   <line x1="38mm"
         y1="5mm"
         x2="38mm"
         y2="6mm"
         style="stroke: red ; stroke-width:1pt"/>
   <line x1="40mm"
         y1="5mm"
         x2="40mm"
         y2="8mm"
         style="stroke: blue ; stroke-width:1pt"/>
   <text x="38.300000000000004mm"
         y="3.7mm"
         font-family="Arial"
         font-size="12"
         fill="red">40</text>
   <line x1="42mm"
         y1="5mm"
         x2="42mm"
         y2="6mm"
         style="stroke: red ; stroke-width:1pt"/>
   <line x1="44mm"
         y1="5mm"
         x2="44mm"
         y2="6mm"
         style="stroke: red ; stroke-width:1pt"/>
   <line x1="46mm"
         y1="5mm"
         x2="46mm"
         y2="6mm"
         style="stroke: red ; stroke-width:1pt"/>
   <line x1="48mm"
         y1="5mm"
         x2="48mm"
         y2="6mm"
         style="stroke: red ; stroke-width:1pt"/>
   <line x1="50mm"
         y1="5mm"
         x2="50mm"
         y2="8mm"
         style="stroke: blue ; stroke-width:1pt"/>
   <text x="48.300000000000004mm"
         y="3.7mm"
         font-family="Arial"
         font-size="12"
         fill="red">50</text>
   <line x1="52mm"
         y1="5mm"
         x2="52mm"
         y2="6mm"
         style="stroke: red ; stroke-width:1pt"/>
   <line x1="54mm"
         y1="5mm"
         x2="54mm"
         y2="6mm"
         style="stroke: red ; stroke-width:1pt"/>
   <line x1="56mm"
         y1="5mm"
         x2="56mm"
         y2="6mm"
         style="stroke: red ; stroke-width:1pt"/>
   <line x1="58mm"
         y1="5mm"
         x2="58mm"
         y2="6mm"
         style="stroke: red ; stroke-width:1pt"/>
   <line x1="60mm"
         y1="5mm"
         x2="60mm"
         y2="8mm"
         style="stroke: blue ; stroke-width:1pt"/>
   <text x="58.300000000000004mm"
         y="3.7mm"
         font-family="Arial"
         font-size="12"
         fill="red">60</text>
   <line x1="62mm"
         y1="5mm"
         x2="62mm"
         y2="6mm"
         style="stroke: red ; stroke-width:1pt"/>
   <line x1="64mm"
         y1="5mm"
         x2="64mm"
         y2="6mm"
         style="stroke: red ; stroke-width:1pt"/>
   <line x1="66mm"
         y1="5mm"
         x2="66mm"
         y2="6mm"
         style="stroke: red ; stroke-width:1pt"/>
   <line x1="68mm"
         y1="5mm"
         x2="68mm"
         y2="6mm"
         style="stroke: red ; stroke-width:1pt"/>
   <line x1="70mm"
         y1="5mm"
         x2="70mm"
         y2="8mm"
         style="stroke: blue ; stroke-width:1pt"/>
   <text x="68.3mm"
         y="3.7mm"
         font-family="Arial"
         font-size="12"
         fill="red">70</text>
   <line x1="72mm"
         y1="5mm"
         x2="72mm"
         y2="6mm"
         style="stroke: red ; stroke-width:1pt"/>
   <line x1="74mm"
         y1="5mm"
         x2="74mm"
         y2="6mm"
         style="stroke: red ; stroke-width:1pt"/>
   <line x1="76mm"
         y1="5mm"
         x2="76mm"
         y2="6mm"
         style="stroke: red ; stroke-width:1pt"/>
   <line x1="78mm"
         y1="5mm"
         x2="78mm"
         y2="6mm"
         style="stroke: red ; stroke-width:1pt"/>
   <line x1="80mm"
         y1="5mm"
         x2="80mm"
         y2="8mm"
         style="stroke: blue ; stroke-width:1pt"/>
   <text x="78.3mm"
         y="3.7mm"
         font-family="Arial"
         font-size="12"
         fill="red">80</text>
   <line x1="82mm"
         y1="5mm"
         x2="82mm"
         y2="6mm"
         style="stroke: red ; stroke-width:1pt"/>
   <line x1="84mm"
         y1="5mm"
         x2="84mm"
         y2="6mm"
         style="stroke: red ; stroke-width:1pt"/>
   <line x1="86mm"
         y1="5mm"
         x2="86mm"
         y2="6mm"
         style="stroke: red ; stroke-width:1pt"/>
   <line x1="88mm"
         y1="5mm"
         x2="88mm"
         y2="6mm"
         style="stroke: red ; stroke-width:1pt"/>
   <line x1="90mm"
         y1="5mm"
         x2="90mm"
         y2="8mm"
         style="stroke: blue ; stroke-width:1pt"/>
   <text x="88.3mm"
         y="3.7mm"
         font-family="Arial"
         font-size="12"
         fill="red">90</text>
   <line x1="92mm"
         y1="5mm"
         x2="92mm"
         y2="6mm"
         style="stroke: red ; stroke-width:1pt"/>
   <line x1="94mm"
         y1="5mm"
         x2="94mm"
         y2="6mm"
         style="stroke: red ; stroke-width:1pt"/>
   <line x1="96mm"
         y1="5mm"
         x2="96mm"
         y2="6mm"
         style="stroke: red ; stroke-width:1pt"/>
   <line x1="98mm"
         y1="5mm"
         x2="98mm"
         y2="6mm"
         style="stroke: red ; stroke-width:1pt"/>
   <line x1="100mm"
         y1="5mm"
         x2="100mm"
         y2="8mm"
         style="stroke: blue ; stroke-width:1pt"/>
   <text x="96.60000000000001mm"
         y="3.7mm"
         font-family="Arial"
         font-size="12"
         fill="red">100</text>
   <line x1="102mm"
         y1="5mm"
         x2="102mm"
         y2="6mm"
         style="stroke: red ; stroke-width:1pt"/>
   <line x1="104mm"
         y1="5mm"
         x2="104mm"
         y2="6mm"
         style="stroke: red ; stroke-width:1pt"/>
   <line x1="106mm"
         y1="5mm"
         x2="106mm"
         y2="6mm"
         style="stroke: red ; stroke-width:1pt"/>
   <line x1="108mm"
         y1="5mm"
         x2="108mm"
         y2="6mm"
         style="stroke: red ; stroke-width:1pt"/>
   <line x1="110mm"
         y1="5mm"
         x2="110mm"
         y2="8mm"
         style="stroke: blue ; stroke-width:1pt"/>
   <text x="106.60000000000001mm"
         y="3.7mm"
         font-family="Arial"
         font-size="12"
         fill="red">110</text>
   <line x1="112mm"
         y1="5mm"
         x2="112mm"
         y2="6mm"
         style="stroke: red ; stroke-width:1pt"/>
   <line x1="114mm"
         y1="5mm"
         x2="114mm"
         y2="6mm"
         style="stroke: red ; stroke-width:1pt"/>
   <line x1="116mm"
         y1="5mm"
         x2="116mm"
         y2="6mm"
         style="stroke: red ; stroke-width:1pt"/>
   <line x1="118mm"
         y1="5mm"
         x2="118mm"
         y2="6mm"
         style="stroke: red ; stroke-width:1pt"/>
   <line x1="120mm"
         y1="5mm"
         x2="120mm"
         y2="8mm"
         style="stroke: blue ; stroke-width:1pt"/>
   <text x="116.60000000000001mm"
         y="3.7mm"
         font-family="Arial"
         font-size="12"
         fill="red">120</text>
   <line x1="122mm"
         y1="5mm"
         x2="122mm"
         y2="6mm"
         style="stroke: red ; stroke-width:1pt"/>
   <line x1="124mm"
         y1="5mm"
         x2="124mm"
         y2="6mm"
         style="stroke: red ; stroke-width:1pt"/>
   <line x1="126mm"
         y1="5mm"
         x2="126mm"
         y2="6mm"
         style="stroke: red ; stroke-width:1pt"/>
   <line x1="128mm"
         y1="5mm"
         x2="128mm"
         y2="6mm"
         style="stroke: red ; stroke-width:1pt"/>
   <line x1="130mm"
         y1="5mm"
         x2="130mm"
         y2="8mm"
         style="stroke: blue ; stroke-width:1pt"/>
   <text x="126.6mm"
         y="3.7mm"
         font-family="Arial"
         font-size="12"
         fill="red">130</text>
   <line x1="132mm"
         y1="5mm"
         x2="132mm"
         y2="6mm"
         style="stroke: red ; stroke-width:1pt"/>
   <line x1="134mm"
         y1="5mm"
         x2="134mm"
         y2="6mm"
         style="stroke: red ; stroke-width:1pt"/>
   <line x1="136mm"
         y1="5mm"
         x2="136mm"
         y2="6mm"
         style="stroke: red ; stroke-width:1pt"/>
   <line x1="138mm"
         y1="5mm"
         x2="138mm"
         y2="6mm"
         style="stroke: red ; stroke-width:1pt"/>
   <line x1="140mm"
         y1="5mm"
         x2="140mm"
         y2="8mm"
         style="stroke: blue ; stroke-width:1pt"/>
   <text x="136.6mm"
         y="3.7mm"
         font-family="Arial"
         font-size="12"
         fill="red">140</text>
   <line x1="142mm"
         y1="5mm"
         x2="142mm"
         y2="6mm"
         style="stroke: red ; stroke-width:1pt"/>
   <line x1="144mm"
         y1="5mm"
         x2="144mm"
         y2="6mm"
         style="stroke: red ; stroke-width:1pt"/>
   <line x1="146mm"
         y1="5mm"
         x2="146mm"
         y2="6mm"
         style="stroke: red ; stroke-width:1pt"/>
   <line x1="148mm"
         y1="5mm"
         x2="148mm"
         y2="6mm"
         style="stroke: red ; stroke-width:1pt"/>
   <line x1="150mm"
         y1="5mm"
         x2="150mm"
         y2="8mm"
         style="stroke: blue ; stroke-width:1pt"/>
   <text x="146.6mm"
         y="3.7mm"
         font-family="Arial"
         font-size="12"
         fill="red">150</text>
   <line x1="152mm"
         y1="5mm"
         x2="152mm"
         y2="6mm"
         style="stroke: red ; stroke-width:1pt"/>
   <line x1="154mm"
         y1="5mm"
         x2="154mm"
         y2="6mm"
         style="stroke: red ; stroke-width:1pt"/>
   <line x1="156mm"
         y1="5mm"
         x2="156mm"
         y2="6mm"
         style="stroke: red ; stroke-width:1pt"/>
   <line x1="158mm"
         y1="5mm"
         x2="158mm"
         y2="6mm"
         style="stroke: red ; stroke-width:1pt"/>
   <line x1="160mm"
         y1="5mm"
         x2="160mm"
         y2="8mm"
         style="stroke: blue ; stroke-width:1pt"/>
   <text x="156.6mm"
         y="3.7mm"
         font-family="Arial"
         font-size="12"
         fill="red">160</text>
   <line x1="162mm"
         y1="5mm"
         x2="162mm"
         y2="6mm"
         style="stroke: red ; stroke-width:1pt"/>
   <line x1="164mm"
         y1="5mm"
         x2="164mm"
         y2="6mm"
         style="stroke: red ; stroke-width:1pt"/>
   <line y1="6mm"
         x1="8mm"
         y2="6mm"
         x2="9mm"
         style="stroke: red ; stroke-width:1pt"/>
   <line y1="8mm"
         x1="8mm"
         y2="8mm"
         x2="9mm"
         style="stroke: red ; stroke-width:1pt"/>
   <line y1="10mm"
         x1="8mm"
         y2="10mm"
         x2="11mm"
         style="stroke: blue ; stroke-width:1pt"/>
   <text x="2.9mm"
         y="11.3mm"
         font-family="Arial"
         font-size="12"
         fill="red">10</text>
   <line y1="12mm"
         x1="8mm"
         y2="12mm"
         x2="9mm"
         style="stroke: red ; stroke-width:1pt"/>
   <line y1="14mm"
         x1="8mm"
         y2="14mm"
         x2="9mm"
         style="stroke: red ; stroke-width:1pt"/>
   <line y1="16mm"
         x1="8mm"
         y2="16mm"
         x2="9mm"
         style="stroke: red ; stroke-width:1pt"/>
   <line y1="18mm"
         x1="8mm"
         y2="18mm"
         x2="9mm"
         style="stroke: red ; stroke-width:1pt"/>
   <line y1="20mm"
         x1="8mm"
         y2="20mm"
         x2="11mm"
         style="stroke: blue ; stroke-width:1pt"/>
   <text x="2.9mm"
         y="21.3mm"
         font-family="Arial"
         font-size="12"
         fill="red">20</text>
   <line y1="22mm"
         x1="8mm"
         y2="22mm"
         x2="9mm"
         style="stroke: red ; stroke-width:1pt"/>
   <line y1="24mm"
         x1="8mm"
         y2="24mm"
         x2="9mm"
         style="stroke: red ; stroke-width:1pt"/>
   <line y1="26mm"
         x1="8mm"
         y2="26mm"
         x2="9mm"
         style="stroke: red ; stroke-width:1pt"/>
   <line y1="28mm"
         x1="8mm"
         y2="28mm"
         x2="9mm"
         style="stroke: red ; stroke-width:1pt"/>
   <line y1="30mm"
         x1="8mm"
         y2="30mm"
         x2="11mm"
         style="stroke: blue ; stroke-width:1pt"/>
   <text x="2.9mm"
         y="31.3mm"
         font-family="Arial"
         font-size="12"
         fill="red">30</text>
   <line y1="32mm"
         x1="8mm"
         y2="32mm"
         x2="9mm"
         style="stroke: red ; stroke-width:1pt"/>
   <line y1="34mm"
         x1="8mm"
         y2="34mm"
         x2="9mm"
         style="stroke: red ; stroke-width:1pt"/>
   <line y1="36mm"
         x1="8mm"
         y2="36mm"
         x2="9mm"
         style="stroke: red ; stroke-width:1pt"/>
   <line y1="38mm"
         x1="8mm"
         y2="38mm"
         x2="9mm"
         style="stroke: red ; stroke-width:1pt"/>
   <line y1="40mm"
         x1="8mm"
         y2="40mm"
         x2="11mm"
         style="stroke: blue ; stroke-width:1pt"/>
   <text x="2.9mm"
         y="41.3mm"
         font-family="Arial"
         font-size="12"
         fill="red">40</text>
   <line y1="42mm"
         x1="8mm"
         y2="42mm"
         x2="9mm"
         style="stroke: red ; stroke-width:1pt"/>
   <line y1="44mm"
         x1="8mm"
         y2="44mm"
         x2="9mm"
         style="stroke: red ; stroke-width:1pt"/>
   <line y1="46mm"
         x1="8mm"
         y2="46mm"
         x2="9mm"
         style="stroke: red ; stroke-width:1pt"/>
   <line y1="48mm"
         x1="8mm"
         y2="48mm"
         x2="9mm"
         style="stroke: red ; stroke-width:1pt"/>
   <line y1="50mm"
         x1="8mm"
         y2="50mm"
         x2="11mm"
         style="stroke: blue ; stroke-width:1pt"/>
   <text x="2.9mm"
         y="51.3mm"
         font-family="Arial"
         font-size="12"
         fill="red">50</text>
   <line y1="52mm"
         x1="8mm"
         y2="52mm"
         x2="9mm"
         style="stroke: red ; stroke-width:1pt"/>
   <line y1="54mm"
         x1="8mm"
         y2="54mm"
         x2="9mm"
         style="stroke: red ; stroke-width:1pt"/>
   <line y1="56mm"
         x1="8mm"
         y2="56mm"
         x2="9mm"
         style="stroke: red ; stroke-width:1pt"/>
   <line y1="58mm"
         x1="8mm"
         y2="58mm"
         x2="9mm"
         style="stroke: red ; stroke-width:1pt"/>
   <line y1="60mm"
         x1="8mm"
         y2="60mm"
         x2="11mm"
         style="stroke: blue ; stroke-width:1pt"/>
   <text x="2.9mm"
         y="61.3mm"
         font-family="Arial"
         font-size="12"
         fill="red">60</text>
   <line y1="62mm"
         x1="8mm"
         y2="62mm"
         x2="9mm"
         style="stroke: red ; stroke-width:1pt"/>
   <line y1="64mm"
         x1="8mm"
         y2="64mm"
         x2="9mm"
         style="stroke: red ; stroke-width:1pt"/>
   <line y1="66mm"
         x1="8mm"
         y2="66mm"
         x2="9mm"
         style="stroke: red ; stroke-width:1pt"/>
   <line y1="68mm"
         x1="8mm"
         y2="68mm"
         x2="9mm"
         style="stroke: red ; stroke-width:1pt"/>
   <line y1="70mm"
         x1="8mm"
         y2="70mm"
         x2="11mm"
         style="stroke: blue ; stroke-width:1pt"/>
   <text x="2.9mm"
         y="71.3mm"
         font-family="Arial"
         font-size="12"
         fill="red">70</text>
   <line y1="72mm"
         x1="8mm"
         y2="72mm"
         x2="9mm"
         style="stroke: red ; stroke-width:1pt"/>
   <line y1="74mm"
         x1="8mm"
         y2="74mm"
         x2="9mm"
         style="stroke: red ; stroke-width:1pt"/>
   <line y1="76mm"
         x1="8mm"
         y2="76mm"
         x2="9mm"
         style="stroke: red ; stroke-width:1pt"/>
   <line y1="78mm"
         x1="8mm"
         y2="78mm"
         x2="9mm"
         style="stroke: red ; stroke-width:1pt"/>
   <line y1="80mm"
         x1="8mm"
         y2="80mm"
         x2="11mm"
         style="stroke: blue ; stroke-width:1pt"/>
   <text x="2.9mm"
         y="81.3mm"
         font-family="Arial"
         font-size="12"
         fill="red">80</text>
   <line y1="82mm"
         x1="8mm"
         y2="82mm"
         x2="9mm"
         style="stroke: red ; stroke-width:1pt"/>
   <line y1="84mm"
         x1="8mm"
         y2="84mm"
         x2="9mm"
         style="stroke: red ; stroke-width:1pt"/>
   <line y1="86mm"
         x1="8mm"
         y2="86mm"
         x2="9mm"
         style="stroke: red ; stroke-width:1pt"/>
   <line y1="88mm"
         x1="8mm"
         y2="88mm"
         x2="9mm"
         style="stroke: red ; stroke-width:1pt"/>
   <line y1="90mm"
         x1="8mm"
         y2="90mm"
         x2="11mm"
         style="stroke: blue ; stroke-width:1pt"/>
   <text x="2.9mm"
         y="91.3mm"
         font-family="Arial"
         font-size="12"
         fill="red">90</text>
   <line y1="92mm"
         x1="8mm"
         y2="92mm"
         x2="9mm"
         style="stroke: red ; stroke-width:1pt"/>
   <line y1="94mm"
         x1="8mm"
         y2="94mm"
         x2="9mm"
         style="stroke: red ; stroke-width:1pt"/>
   <line y1="96mm"
         x1="8mm"
         y2="96mm"
         x2="9mm"
         style="stroke: red ; stroke-width:1pt"/>
   <line y1="98mm"
         x1="8mm"
         y2="98mm"
         x2="9mm"
         style="stroke: red ; stroke-width:1pt"/>
   <line y1="100mm"
         x1="8mm"
         y2="100mm"
         x2="11mm"
         style="stroke: blue ; stroke-width:1pt"/>
   <text x="1.2000000000000002mm"
         y="101.3mm"
         font-family="Arial"
         font-size="12"
         fill="red">100</text>
   <line y1="102mm"
         x1="8mm"
         y2="102mm"
         x2="9mm"
         style="stroke: red ; stroke-width:1pt"/>
   <line y1="104mm"
         x1="8mm"
         y2="104mm"
         x2="9mm"
         style="stroke: red ; stroke-width:1pt"/>
   <line y1="106mm"
         x1="8mm"
         y2="106mm"
         x2="9mm"
         style="stroke: red ; stroke-width:1pt"/>
   <line y1="108mm"
         x1="8mm"
         y2="108mm"
         x2="9mm"
         style="stroke: red ; stroke-width:1pt"/>
   <line y1="110mm"
         x1="8mm"
         y2="110mm"
         x2="11mm"
         style="stroke: blue ; stroke-width:1pt"/>
   <text x="1.2000000000000002mm"
         y="111.3mm"
         font-family="Arial"
         font-size="12"
         fill="red">110</text>
   <line y1="112mm"
         x1="8mm"
         y2="112mm"
         x2="9mm"
         style="stroke: red ; stroke-width:1pt"/>
   <line y1="114mm"
         x1="8mm"
         y2="114mm"
         x2="9mm"
         style="stroke: red ; stroke-width:1pt"/>
   <line y1="116mm"
         x1="8mm"
         y2="116mm"
         x2="9mm"
         style="stroke: red ; stroke-width:1pt"/>
   <line y1="118mm"
         x1="8mm"
         y2="118mm"
         x2="9mm"
         style="stroke: red ; stroke-width:1pt"/>
   <line y1="120mm"
         x1="8mm"
         y2="120mm"
         x2="11mm"
         style="stroke: blue ; stroke-width:1pt"/>
   <text x="1.2000000000000002mm"
         y="121.3mm"
         font-family="Arial"
         font-size="12"
         fill="red">120</text>
   <line y1="122mm"
         x1="8mm"
         y2="122mm"
         x2="9mm"
         style="stroke: red ; stroke-width:1pt"/>
   <line y1="124mm"
         x1="8mm"
         y2="124mm"
         x2="9mm"
         style="stroke: red ; stroke-width:1pt"/>
   <line y1="126mm"
         x1="8mm"
         y2="126mm"
         x2="9mm"
         style="stroke: red ; stroke-width:1pt"/>
   <line y1="128mm"
         x1="8mm"
         y2="128mm"
         x2="9mm"
         style="stroke: red ; stroke-width:1pt"/>
   <line y1="130mm"
         x1="8mm"
         y2="130mm"
         x2="11mm"
         style="stroke: blue ; stroke-width:1pt"/>
   <text x="1.2000000000000002mm"
         y="131.3mm"
         font-family="Arial"
         font-size="12"
         fill="red">130</text>
   <line y1="132mm"
         x1="8mm"
         y2="132mm"
         x2="9mm"
         style="stroke: red ; stroke-width:1pt"/>
   <line y1="134mm"
         x1="8mm"
         y2="134mm"
         x2="9mm"
         style="stroke: red ; stroke-width:1pt"/>
   <line y1="136mm"
         x1="8mm"
         y2="136mm"
         x2="9mm"
         style="stroke: red ; stroke-width:1pt"/>
   <line y1="138mm"
         x1="8mm"
         y2="138mm"
         x2="9mm"
         style="stroke: red ; stroke-width:1pt"/>
   <line y1="140mm"
         x1="8mm"
         y2="140mm"
         x2="11mm"
         style="stroke: blue ; stroke-width:1pt"/>
   <text x="1.2000000000000002mm"
         y="141.3mm"
         font-family="Arial"
         font-size="12"
         fill="red">140</text>
   <line y1="142mm"
         x1="8mm"
         y2="142mm"
         x2="9mm"
         style="stroke: red ; stroke-width:1pt"/>
   <line y1="144mm"
         x1="8mm"
         y2="144mm"
         x2="9mm"
         style="stroke: red ; stroke-width:1pt"/>
   <line y1="146mm"
         x1="8mm"
         y2="146mm"
         x2="9mm"
         style="stroke: red ; stroke-width:1pt"/>
   <line y1="148mm"
         x1="8mm"
         y2="148mm"
         x2="9mm"
         style="stroke: red ; stroke-width:1pt"/>
   <line y1="150mm"
         x1="8mm"
         y2="150mm"
         x2="11mm"
         style="stroke: blue ; stroke-width:1pt"/>
   <text x="1.2000000000000002mm"
         y="151.3mm"
         font-family="Arial"
         font-size="12"
         fill="red">150</text>
   <line y1="152mm"
         x1="8mm"
         y2="152mm"
         x2="9mm"
         style="stroke: red ; stroke-width:1pt"/>
   <line y1="154mm"
         x1="8mm"
         y2="154mm"
         x2="9mm"
         style="stroke: red ; stroke-width:1pt"/>
   <line y1="156mm"
         x1="8mm"
         y2="156mm"
         x2="9mm"
         style="stroke: red ; stroke-width:1pt"/>
   <line y1="158mm"
         x1="8mm"
         y2="158mm"
         x2="9mm"
         style="stroke: red ; stroke-width:1pt"/>
   <line y1="160mm"
         x1="8mm"
         y2="160mm"
         x2="11mm"
         style="stroke: blue ; stroke-width:1pt"/>
   <text x="1.2000000000000002mm"
         y="161.3mm"
         font-family="Arial"
         font-size="12"
         fill="red">160</text>
   <line y1="162mm"
         x1="8mm"
         y2="162mm"
         x2="9mm"
         style="stroke: red ; stroke-width:1pt"/>
   <line y1="164mm"
         x1="8mm"
         y2="164mm"
         x2="9mm"
         style="stroke: red ; stroke-width:1pt"/>
   <line y1="166mm"
         x1="8mm"
         y2="166mm"
         x2="9mm"
         style="stroke: red ; stroke-width:1pt"/>
   <line y1="168mm"
         x1="8mm"
         y2="168mm"
         x2="9mm"
         style="stroke: red ; stroke-width:1pt"/>
   <line y1="170mm"
         x1="8mm"
         y2="170mm"
         x2="11mm"
         style="stroke: blue ; stroke-width:1pt"/>
   <text x="1.2000000000000002mm"
         y="171.3mm"
         font-family="Arial"
         font-size="12"
         fill="red">170</text>
   <line y1="172mm"
         x1="8mm"
         y2="172mm"
         x2="9mm"
         style="stroke: red ; stroke-width:1pt"/>
   <line y1="174mm"
         x1="8mm"
         y2="174mm"
         x2="9mm"
         style="stroke: red ; stroke-width:1pt"/>
   <line y1="176mm"
         x1="8mm"
         y2="176mm"
         x2="9mm"
         style="stroke: red ; stroke-width:1pt"/>
   <line y1="178mm"
         x1="8mm"
         y2="178mm"
         x2="9mm"
         style="stroke: red ; stroke-width:1pt"/>
   <line y1="180mm"
         x1="8mm"
         y2="180mm"
         x2="11mm"
         style="stroke: blue ; stroke-width:1pt"/>
   <text x="1.2000000000000002mm"
         y="181.3mm"
         font-family="Arial"
         font-size="12"
         fill="red">180</text>
   <line y1="182mm"
         x1="8mm"
         y2="182mm"
         x2="9mm"
         style="stroke: red ; stroke-width:1pt"/>
</svg>
